# xmcd
#
# Track frame offsets: 
#        150
#        22711
#        44392
#        89129
#        111355
#        138749
#        154149
#        181359
#        206034
#        250904
#        268812
#        291645
#        318455
#
# Disc length: 4586 seconds
#
# Revision: 0
# Processed by: cddbd v1.5.2PL0 Copyright (c) Steve Scherf et al.
# Submitted via: ExactAudioCopy v1.3
#
DISCID=cc11e80d
DTITLE=Bernard Allison - Songs From The Road
DYEAR=2020
DGENRE=Blues Rock
TTITLE0=Night Train
TTITLE1=Stay With Me Tonight
TTITLE2=You're Gonna Need Me
TTITLE3=I Can't Get You Out Of My Mind
TTITLE4=Call Me Momma
TTITLE5=Feels Kinda Funny
TTITLE6=Cruisin For A Bluesin
TTITLE7=Same Ole Feeling
TTITLE8=Let's Try It Again
TTITLE9=Meet Me Half Way
TTITLE10=Backdoor Man
TTITLE11=Something's Wrong
TTITLE12=Slide Master
EXTD=
EXTT0=
EXTT1=
EXTT2=
EXTT3=
EXTT4=
EXTT5=
EXTT6=
EXTT7=
EXTT8=
EXTT9=
EXTT10=
EXTT11=
EXTT12=
PLAYORDER=
